Coordinates
version=1
nRows=16
nColumns=63
inDegrees=yes

Units are S.I. units (second, meters, Newtons, ...)
If the header above contains a line with 'inDegrees', this indicates whether rotational values are in degrees (yes) or radians (no).

endheader
time	pelvis_tilt	pelvis_list	pelvis_rotation	pelvis_tx	pelvis_ty	pelvis_tz	hip_flexion_r	hip_adduction_r	hip_rotation_r	knee_angle_r	knee_angle_r_beta	ankle_angle_r	subtalar_angle_r	mtp_angle_r	hip_flexion_l	hip_adduction_l	hip_rotation_l	knee_angle_l	knee_angle_l_beta	ankle_angle_l	subtalar_angle_l	mtp_angle_l	L5_S1_Flex_Ext	L5_S1_Lat_Bending	L5_S1_axial_rotation	L4_L5_Flex_Ext	L4_L5_Lat_Bending	L4_L5_axial_rotation	L3_L4_Flex_Ext	L3_L4_Lat_Bending	L3_L4_axial_rotation	L2_L3_Flex_Ext	L2_L3_Lat_Bending	L2_L3_axial_rotation	L1_L2_Flex_Ext	L1_L2_Lat_Bending	L1_L2_axial_rotation	L1_T12_Flex_Ext	L1_T12_Lat_Bending	L1_T12_axial_rotation	Abs_r3	Abs_r2	Abs_r1	Abs_t1	Abs_t2	neck_flexion	neck_bending	neck_rotation	arm_flex_r	arm_add_r	arm_rot_r	elbow_flex_r	pro_sup_r	wrist_flex_r	wrist_dev_r	arm_flex_l	arm_add_l	arm_rot_l	elbow_flex_l	pro_sup_l	wrist_flex_l	wrist_dev_l
2.016949	1.506548	-6.251777	89.063689	0.242933	1.016419	0.070994	-3.280178	0.454885	-6.241520	10.632350	0.185570	28.022537	14.388614	0.000000	-5.138822	1.559219	-8.101095	7.259639	0.126705	19.164245	-8.062276	0.000000	-0.196543	0.200240	1.624997	-0.365000	0.266319	1.726560	-0.322901	0.486863	1.726560	-0.224629	0.486863	1.421873	-0.182510	0.408329	1.320310	-0.112305	0.310172	1.218748	-1.403888	2.265154	9.037748	0.000000	0.000000	13.770354	-0.967968	-7.323734	-3.892584	-19.007696	36.376754	23.725169	50.166555	-7.892656	-2.750113	6.332572	-19.553231	91.800122	21.285295	61.782636	-10.927401	-7.110497
2.033898	1.499061	-6.265498	89.220086	0.242561	1.016259	0.070585	-3.318366	0.426542	-6.667979	10.672417	0.186269	27.893203	14.646312	0.000000	-5.032075	1.501554	-8.589748	7.491814	0.130757	19.399487	-7.196683	0.000000	-0.207929	0.208750	1.573424	-0.386146	0.277638	1.671763	-0.341607	0.507555	1.671763	-0.237643	0.507555	1.376746	-0.193083	0.425683	1.278407	-0.118811	0.323354	1.180068	-1.485219	2.361424	8.750913	0.000000	0.000000	13.863434	-1.016719	-7.367639	-3.914162	-19.188311	38.073733	23.266450	48.903311	-7.706222	-3.409570	6.407859	-18.978137	97.067042	20.246054	59.953313	-11.322238	-7.647351
2.050847	1.482934	-6.292054	89.362507	0.242193	1.016123	0.070143	-3.348794	0.390871	-7.028887	10.680397	0.186408	27.755872	14.858826	0.000000	-4.919391	1.453187	-9.122356	7.706376	0.134502	19.645812	-6.264622	0.000000	-0.216798	0.216820	1.520091	-0.402615	0.288371	1.615097	-0.356177	0.527177	1.615097	-0.247778	0.527177	1.330080	-0.201318	0.442140	1.235074	-0.123878	0.335854	1.140069	-1.548564	2.452713	8.454292	0.000000	0.000000	13.898675	-1.101826	-7.362956	-3.958534	-19.308748	39.530046	22.924754	47.750065	-7.558869	-3.849122	6.423059	-18.260957	103.687881	18.873424	57.270397	-11.613073	-8.224108
2.067797	1.467305	-6.326354	89.498297	0.241797	1.016033	0.069706	-3.371721	0.357907	-7.309957	10.658762	0.186030	27.614017	15.007567	0.000000	-4.803464	1.405942	-9.725261	7.902001	0.137916	19.921956	-5.217047	0.000000	-0.223291	0.225705	1.465711	-0.414675	0.300188	1.557318	-0.366846	0.548779	1.557318	-0.255200	0.548779	1.282497	-0.207348	0.460257	1.190890	-0.127589	0.349617	1.099283	-1.594949	2.553219	8.151843	0.000000	0.000000	13.873593	-1.219812	-7.311328	-3.970769	-19.434793	41.170535	22.663288	46.034894	-7.492646	-4.240784	6.406199	-17.418346	111.497852	17.218052	53.772957	-11.725227	-8.783803
2.084746	1.458492	-6.369954	89.621502	0.241352	1.015985	0.069300	-3.379442	0.330213	-7.524568	10.617958	0.185318	27.473306	15.124597	0.000000	-4.689749	1.366584	-10.256747	8.058016	0.140639	20.182969	-4.267116	0.000000	-0.227195	0.236768	1.414691	-0.421924	0.314902	1.503109	-0.373258	0.575678	1.503109	-0.259661	0.575678	1.237855	-0.210973	0.482817	1.149437	-0.129819	0.366754	1.061018	-1.622830	2.678368	7.868088	0.000000	0.000000	13.809587	-1.360860	-7.184765	-4.009655	-19.529874	42.574898	22.494736	44.269205	-7.437511	-4.515838	6.355616	-16.474443	120.219237	15.363972	49.574624	-11.649388	-9.214637
2.101695	1.460761	-6.419228	89.735299	0.240847	1.015988	0.068950	-3.372891	0.310412	-7.694757	10.566287	0.184416	27.329729	15.226517	0.000000	-4.581491	1.332124	-10.710742	8.171857	0.142626	20.446486	-3.416405	0.000000	-0.229085	0.250513	1.365677	-0.425433	0.333182	1.451032	-0.376363	0.609097	1.451032	-0.261821	0.609097	1.194967	-0.212728	0.510846	1.109612	-0.130899	0.388045	1.024258	-1.636330	2.833854	7.595485	0.000000	0.000000	13.715002	-1.520027	-6.986058	-4.010598	-19.608781	44.118810	22.351584	42.246706	-7.365948	-4.791266	6.259088	-15.467817	129.465672	13.392030	44.835414	-11.417386	-9.478399
2.118644	1.477681	-6.473102	89.824206	0.240295	1.016033	0.068679	-3.346485	0.300456	-7.805853	10.518100	0.183575	27.179184	15.297489	0.000000	-4.482360	1.304326	-11.057966	8.237231	0.143767	20.708046	-2.736706	0.000000	-0.229603	0.267530	1.322596	-0.426396	0.355814	1.405258	-0.377215	0.650472	1.405258	-0.262414	0.650472	1.157271	-0.213210	0.545546	1.074609	-0.131195	0.414403	0.991947	-1.640034	3.026349	7.355881	0.000000	0.000000	13.604172	-1.694178	-6.718515	-3.987632	-19.681203	45.682923	22.223757	40.270411	-7.298774	-5.073543	6.101860	-14.429342	138.874278	11.373650	39.731828	-11.103925	-9.568726
2.135593	1.507215	-6.530951	89.897969	0.239704	1.016118	0.068509	-3.298432	0.297914	-7.887106	10.483829	0.182977	27.016244	15.348571	0.000000	-4.392140	1.288185	-11.200152	8.250230	0.143994	20.938134	-2.359895	0.000000	-0.229471	0.287172	1.283205	-0.426150	0.381939	1.363406	-0.376997	0.698231	1.363406	-0.262262	0.698231	1.122805	-0.213087	0.585602	1.042604	-0.131120	0.444830	0.962404	-1.639086	3.248551	7.136804	0.000000	0.000000	13.486601	-1.870957	-6.392862	-3.894023	-19.741510	47.522597	22.046314	38.287718	-7.238160	-5.448636	5.873475	-13.398534	148.266275	9.381776	34.351045	-10.776369	-9.457856
2.152542	1.548146	-6.593396	89.977244	0.239081	1.016224	0.068450	-3.232985	0.302531	-7.997192	10.459927	0.182560	26.843798	15.424679	0.000000	-4.305102	1.280254	-11.120118	8.223914	0.143534	21.138692	-2.294234	0.000000	-0.229100	0.308693	1.244938	-0.425461	0.410562	1.322747	-0.376388	0.750556	1.322747	-0.261838	0.750556	1.089321	-0.212742	0.629487	1.011512	-0.130907	0.478165	0.933703	-1.636435	3.491996	6.923971	0.000000	0.000000	13.382613	-2.044414	-6.031944	-3.733831	-19.783031	49.571225	21.816445	36.436319	-7.214146	-5.906909	5.571915	-12.411493	157.320376	7.476920	28.844753	-10.458814	-9.195976
2.169492	1.594912	-6.666443	90.007252	0.238545	1.016339	0.068505	-3.132958	0.311342	-8.045791	10.460639	0.182573	26.675027	15.479480	0.000000	-4.218058	1.261854	-11.283480	8.174511	0.142672	21.443996	-1.928902	0.000000	-0.227840	0.330805	1.217054	-0.423122	0.439971	1.293120	-0.374319	0.804319	1.293120	-0.260399	0.804319	1.064922	-0.211573	0.674578	0.988856	-0.130188	0.512417	0.912790	-1.627441	3.742132	6.768888	0.000000	0.000000	13.299752	-2.206419	-5.622926	-3.527651	-19.825599	51.665363	21.528887	34.865652	-7.268189	-6.455525	5.210161	-11.495683	165.498357	5.708478	24.053107	-10.260379	-8.829915
2.186441	1.641507	-6.748958	90.018321	0.238091	1.016455	0.068670	-3.009446	0.323037	-8.068894	10.473486	0.182797	26.512757	15.518942	0.000000	-4.132502	1.255450	-11.295059	8.090538	0.141207	21.677127	-1.825426	0.000000	-0.225409	0.351994	1.194931	-0.418608	0.468152	1.269615	-0.370325	0.855838	1.269615	-0.257620	0.855838	1.045565	-0.209315	0.717786	0.970882	-0.128799	0.545239	0.896199	-1.610076	3.981828	6.645850	0.000000	0.000000	13.254179	-2.335420	-5.176308	-3.261063	-19.831382	53.944685	21.167737	33.453290	-7.341332	-7.092287	4.819760	-10.678464	172.916346	4.109505	19.860032	-10.190196	-8.385579
2.203390	1.678585	-6.833603	89.993038	0.237775	1.016562	0.068905	-2.871978	0.329177	-8.047556	10.500818	0.183274	26.365185	15.539359	0.000000	-4.064991	1.269178	-11.187752	7.963319	0.138986	21.810661	-1.957555	0.000000	-0.222019	0.370435	1.181474	-0.412312	0.492679	1.255316	-0.364756	0.900676	1.255316	-0.253746	0.900676	1.033789	-0.206167	0.755391	0.959947	-0.126862	0.573804	0.886105	-1.585862	4.190437	6.571002	0.000000	0.000000	13.238071	-2.437940	-4.727759	-2.961208	-19.785267	56.266548	20.763894	32.279477	-7.449127	-7.744733	4.377681	-10.012150	179.131361	2.772957	16.357465	-10.197520	-7.847325
2.220339	1.702735	-6.925148	89.949415	0.237571	1.016649	0.069236	-2.720019	0.326096	-8.030242	10.537121	0.183907	26.224576	15.569937	0.000000	-3.997049	1.301843	-10.987489	7.816884	0.136430	21.829053	-2.299584	0.000000	-0.217277	0.385639	1.176424	-0.403505	0.512899	1.249951	-0.356964	0.937641	1.249951	-0.248326	0.937641	1.029371	-0.201763	0.786394	0.955845	-0.124152	0.597354	0.882318	-1.551987	4.362420	6.542919	0.000000	0.000000	13.277747	-2.490065	-4.251559	-2.659446	-19.685441	58.516956	20.346820	31.227122	-7.550447	-8.474628	3.983432	-9.470786	184.295277	1.650842	14.046363	-10.467486	-7.292934
2.237288	1.711345	-7.012002	89.874680	0.237494	1.016746	0.069640	-2.566303	0.307638	-8.030984	10.588358	0.184802	26.092015	15.633720	0.000000	-3.945401	1.355361	-10.725452	7.648307	0.133488	21.708510	-2.818694	0.000000	-0.211906	0.397032	1.182085	-0.393531	0.528053	1.255965	-0.348140	0.965344	1.255965	-0.242187	0.965344	1.034324	-0.196776	0.809628	0.960444	-0.121083	0.615003	0.886564	-1.513623	4.491308	6.574401	0.000000	0.000000	13.333104	-2.511472	-3.800123	-2.222750	-19.583196	61.574260	19.852624	29.326226	-7.617690	-9.450313	3.790597	-8.986944	189.465694	0.694092	11.467970	-10.980745	-7.015857
2.254237	1.706012	-7.094703	89.747219	0.237571	1.016800	0.070064	-2.415053	0.276356	-8.005442	10.652142	0.185915	25.971548	15.695033	0.000000	-3.916721	1.434508	-10.339236	7.455616	0.130125	21.424861	-3.641623	0.000000	-0.206447	0.404774	1.201093	-0.383392	0.538349	1.276162	-0.339171	0.984167	1.276162	-0.235948	0.984167	1.050957	-0.191706	0.825415	0.975888	-0.117964	0.626995	0.900820	-1.474629	4.578882	6.680120	0.000000	0.000000	13.420250	-2.507258	-3.399117	-1.837908	-19.444706	64.038620	19.418997	27.972812	-7.705801	-10.374294	3.675916	-8.672210	193.218455	0.076814	9.545755	-11.603669	-6.893366
2.271186	1.689677	-7.175816	89.595663	0.237728	1.016812	0.070467	-2.273426	0.232544	-8.017469	10.717874	0.187062	25.868697	15.804402	0.000000	-3.903161	1.525909	-9.926496	7.257643	0.126670	21.045886	-4.576920	0.000000	-0.199913	0.409418	1.228296	-0.371258	0.544526	1.305064	-0.328437	0.995459	1.305064	-0.228480	0.995459	1.074759	-0.185639	0.834885	0.997990	-0.114230	0.634188	0.921222	-1.427956	4.631417	6.831411	0.000000	0.000000	13.502078	-2.490737	-3.069327	-1.447554	-19.334847	66.380212	19.064571	26.384371	-7.801184	-11.343071	3.662243	-8.470109	195.626926	-0.299069	8.401671	-12.199601	-6.942174
